<?xml version="1.0" standalone="no"?><!DOCTYPE svg PUBLIC "-//W3C//DTD SVG 1.1//EN" "http://www.w3.org/Graphics/SVG/1.1/DTD/svg11.dtd"><svg t="1604630742043" class="icon" viewBox="0 0 1024 1024" version="1.1" xmlns="http://www.w3.org/2000/svg" p-id="37301" xmlns:xlink="http://www.w3.org/1999/xlink" width="64" height="64"><defs><style type="text/css"></style></defs><path d="M523.1 458.6c-12.4 4.9-9.1 5.7-24.2-0.3L94.7 290.4c-3.3-3.1-5.2-7.4-5.4-11.9-0.1-4.5 1.5-8.9 4.7-12.2L488.1 98.6c8.9-4.2 18.1-6.5 34.4 0.2L924 263.3c6.9 6.7 7.2 17.6 0.8 24.2L523.1 458.6z m12.2 457.2c0 10.2 8.3 18.5 18.6 18.5l384.8-200.6c15-9.4 18.5-26 18.5-50.1V345.1c0-4.9-1.9-9.6-5.4-13.1-3.5-3.5-8.2-5.4-13.1-5.4L553.8 488.1c-18.6 7.2-18.6 16.7-18.6 26.9l0.1 400.8z m-64.7-427.7L85.8 326.6c-4.9 0-9.6 1.9-13.1 5.4-3.5 3.5-5.4 8.2-5.4 13.1v389.1c0 4.1-2.5 10.1 18.5 18.5l384.8 181.7c10.2 0 18.5-8.3 18.5-18.5V515c0-10.2 0-19.7-18.5-26.9zM345 583.9c-49.3-21.5-98.5-43-147.7-64.7-8.1-3.5-12.2-5-12.2-11.4V465c-0.2-5.6 3.2-13 9.7-10.5l151.7 66.6c14.1 6.7 9.8 7.5 10.4 33v21.2c0.1 4.2-3.9 12-11.9 8.6z m0 0" p-id="37302"></path></svg>