<?xml version="1.0" standalone="no"?><!DOCTYPE svg PUBLIC "-//W3C//DTD SVG 1.1//EN" "http://www.w3.org/Graphics/SVG/1.1/DTD/svg11.dtd"><svg t="1609123523944" class="icon" viewBox="0 0 1024 1024" version="1.1" xmlns="http://www.w3.org/2000/svg" p-id="3477" xmlns:xlink="http://www.w3.org/1999/xlink" width="64" height="64"><defs><style type="text/css"></style></defs><path d="M832 128c38.4 0 64 25.6 64 64v640c0 38.4-25.6 64-64 64H192c-38.4 0-64-25.6-64-64V192c0-38.4 25.6-64 64-64h640m0-64H192c-70.4 0-128 57.6-128 128v640c0 70.4 57.6 128 128 128h640c70.4 0 128-57.6 128-128V192c0-70.4-57.6-128-128-128z" p-id="3478"></path><path d="M928 320h-832c-19.2 0-32-12.8-32-32s12.8-32 32-32h832c19.2 0 32 12.8 32 32s-12.8 32-32 32zM544 544v256c0 19.2-12.8 32-32 32s-32-12.8-32-32v-256c0-19.2 12.8-32 32-32s32 12.8 32 32z" p-id="3479"></path><path d="M716.8 588.8H307.2c-12.8 0-32-12.8-32-32s12.8-32 32-32h403.2c19.2 0 32 12.8 32 32 6.4 19.2-12.8 32-25.6 32z" p-id="3480"></path><path d="M652.8 435.2L537.6 550.4c-12.8 12.8-32 12.8-44.8 0-12.8-12.8-12.8-32 0-44.8l115.2-115.2c12.8-12.8 32-12.8 44.8 0 12.8 12.8 12.8 32 0 44.8z" p-id="3481"></path><path d="M416 390.4l115.2 115.2c12.8 12.8 12.8 32 0 44.8-12.8 12.8-32 12.8-44.8 0L371.2 435.2c-12.8-12.8-12.8-32 0-44.8 12.8-12.8 32-12.8 44.8 0zM710.4 723.2H313.6c-19.2 0-32-12.8-32-32s12.8-32 32-32h396.8c19.2 0 32 12.8 32 32 0 12.8-12.8 32-32 32z" p-id="3482"></path></svg>