<?xml version="1.0" standalone="no"?><!DOCTYPE svg PUBLIC "-//W3C//DTD SVG 1.1//EN" "http://www.w3.org/Graphics/SVG/1.1/DTD/svg11.dtd"><svg t="1604630395220" class="icon" viewBox="0 0 1098 1024" version="1.1" xmlns="http://www.w3.org/2000/svg" p-id="34815" xmlns:xlink="http://www.w3.org/1999/xlink" width="68.625" height="64"><defs><style type="text/css"></style></defs><path d="M1081.11599 364.611222c-12.377024-10.900865-31.112885-9.765358-42.01375 2.611666 0 0 0 0 0 0.113551L1006.399645 404.240408C956.210246 171.688623 750.34287 5.677534 512.454203 6.018186 233.460191 6.018186 6.472389 233.005988 6.472389 512s226.987802 505.868263 505.981814 505.868263c71.082723 0.227101 141.370592-14.761588 206.321579-43.71701 15.10224-6.585939 21.915281-24.186294 15.329341-39.288534-6.585939-15.10224-24.186294-21.915281-39.288534-15.329341-0.113551 0-0.227101 0.113551-0.340652 0.113551-57.229541 25.662453-119.22821 38.834331-181.908184 38.60723-246.064316 0-446.254158-200.189843-446.254158-446.254158s200.189843-446.367709 446.254158-446.367709c209.387447-0.340652 390.614327 145.231315 435.353293 349.736083l-44.852517-39.742737c-12.377024-10.900865-31.226436-9.765358-42.127301 2.611666-10.900865 12.377024-9.765358 31.226436 2.611666 42.127301l0 0 94.701264 83.800399c8.743402 7.721446 21.120426 9.651807 31.794189 4.99623 0.908405-0.454203 1.589709-1.249057 2.384564-1.816811 2.952318-1.476159 5.563983-3.40652 7.834997-5.677534 0 0 0 0 0-0.113551l83.686849-94.814815C1094.628521 394.361499 1093.493014 375.512087 1081.11599 364.611222 1081.11599 364.611222 1081.11599 364.611222 1081.11599 364.611222z" p-id="34816" fill="#bfcbd9"></path><path d="M680.849856 544.021291 537.321801 544.021291l0-86.071413 143.414504 0c16.464848 0 29.863828-13.39898 29.863828-29.863828 0-16.464848-13.39898-29.863828-29.863828-29.863828l0 0-102.082058 0 76.078953-72.445332c11.922821-11.355068 12.377024-30.20448 1.021956-42.127301-11.355068-11.922821-30.20448-12.377024-42.127301-1.021956l-107.305389 102.195609-98.448436-97.880683c-11.69572-11.582169-30.545132-11.582169-42.127301 0.113551-11.582169 11.69572-11.582169 30.545132 0.113551 42.127301l69.379463 68.925261-100.946551 0c-16.464848 0-29.863828 13.39898-29.863828 29.863828s13.39898 29.863828 29.863828 29.863828l143.414504 0 0 86.071413L334.293191 543.90774c-16.464848 0-29.863828 13.39898-29.863828 29.863828 0 16.464848 13.39898 29.863828 29.863828 29.863828l143.414504 0 0 162.036815c0 16.464848 13.39898 29.863828 29.863828 29.863828s29.863828-13.39898 29.863828-29.863828L537.435352 603.748947l143.414504 0c16.464848 0 29.863828-13.39898 29.863828-29.863828C710.600133 557.420271 697.314704 544.021291 680.849856 544.021291L680.849856 544.021291z" p-id="34817"></path></svg>