<?xml version="1.0" standalone="no"?><!DOCTYPE svg PUBLIC "-//W3C//DTD SVG 1.1//EN" "http://www.w3.org/Graphics/SVG/1.1/DTD/svg11.dtd"><svg t="1604628793166" class="icon" viewBox="0 0 1024 1024" version="1.1" xmlns="http://www.w3.org/2000/svg" p-id="22615" xmlns:xlink="http://www.w3.org/1999/xlink" width="64" height="64"><defs><style type="text/css"></style></defs><path d="M120.37376 108.50048C120.37376 48.55552 168.39936 0 227.6224 0c59.2512 0 107.33184 48.55552 107.33184 108.50048S286.8736 216.9728 227.6224 216.9728c-59.22304 0-107.24864-48.52864-107.24864-108.47232z m225.3056 159.6096c-15.6288-12.22144-31.81312-22.66624-50.58816-29.25056-17.43872-6.10944-35.79648-9.52704-54.18112-10.80448l27.68896 294.02752-39.9744 47.38816-45.68448-47.38816 34.6816-294.41664c-20.05632 0.66688-40.16896 3.9168-59.13984 10.74944-7.71584 2.7776-15.23712 6.16576-22.34112 10.3616-12.42368 7.36128-23.87328 16.25088-34.73792 25.94432-53.45664 47.9168-82.39872 131.08224-88.55552 254.25152-1.0304 21.14048 15.04256 39.1104 35.90656 40.16384 0.64128 0.02816 1.30944 0.05632 1.94944 0.05632 20.02944 0 36.77184-15.88736 37.77408-36.3584 4.15104-83.44448 20.52992-145.63968 47.38304-182.66752-1.92128 38.80576-5.31968 109.22368-8.384 181.16992-0.22272 1.27488-0.55808 2.528-0.66816 3.86048L96.55808 967.80672c-1.92128 27.36 18.44096 51.08224 45.48992 53.02912 1.16992 0.05504 2.36672 0.11136 3.50976 0.11136 25.54368 0 47.05024-20 48.88704-46.13888l23.8464-340.5824c3.76064-1.056 7.43808-2.00064 10.61376-2.00064 3.7888 0 7.38176 0.66688 11.05792 1.11104l22.00832 344.2496C263.66848 1003.8336 285.25696 1024 310.94144 1024c1.05856 0 2.11712-0.02688 3.23072-0.11136 27.01952-1.77792 47.49568-25.39008 45.79584-52.72064l-26.18496-408.77696c-0.1408-2.27712-0.66944-4.44416-1.05984-6.61248-2.22848-62.55488-9.27488-155.22048-13.37088-205.55392 27.43936 37.08288 42.87104 98.66624 44.54272 181.47328 0.44544 20.86016 17.2992 37.4976 38.66496 37.46944 20.89344-0.416 37.46688-17.888 37.0496-39.05536-2.56128-127.05536-34.17856-215.22176-93.93024-262.00192zM1011.2 1023.41632H505.24032V668.86016H1011.2v354.55616zM767.92832 630.80576v-78.69312c76.9664-12.75136 118.16832-68.83456 118.16832-128.5568 0-67.2512-38.97216-106.58432-115.88352-138.3616-64.90752-27.02848-92.59776-46.63936-92.59776-85.9456 0-30.36032 21.67424-65.0816 79.25376-65.0816 47.74528 0 78.36032 16.7488 93.93024 25.44384l18.72-49.66656c-21.61792-12.88832-52.2304-24.9728-97.02272-26.30656V10.08384h-46.24256V86.528c-68.63872 11.30624-112.8768 58.94528-112.8768 121.66656 0 65.69472 47.07712 100.47232 123.26656 130.6944 55.40736 22.88768 84.51456 48.44416 84.51456 89.9712 0 43.2512-35.93472 74.1952-89.02912 74.1952-41.67424 0-80.61696-14.4448-107.47136-32.50048L606.72 521.05472c26.15808 18.83392 70.89536 32.61184 114.24128 33.25184v76.50176l46.96704-0.00256z" p-id="22616"></path></svg>