<?xml version="1.0" standalone="no"?><!DOCTYPE svg PUBLIC "-//W3C//DTD SVG 1.1//EN" "http://www.w3.org/Graphics/SVG/1.1/DTD/svg11.dtd"><svg t="1604559148246" class="icon" viewBox="0 0 1024 1024" version="1.1" xmlns="http://www.w3.org/2000/svg" p-id="10599" xmlns:xlink="http://www.w3.org/1999/xlink" width="64" height="64"><defs><style type="text/css"></style></defs><path d="M882.07 260.81L839.91 303A389.15 389.15 0 0 1 301.8 841.08l-42.16 42.15A445.55 445.55 0 0 0 513 961.79c247.22 0 447.63-200.41 447.63-447.62a445.55 445.55 0 0 0-78.56-253.36zM871.16 100.91l-70.39 70.4A445.8 445.8 0 0 0 513 66.54C265.78 66.54 65.37 267 65.37 514.17a445.8 445.8 0 0 0 104.77 287.77l-75.81 75.81 51.92 51.92 776.84-776.83z m-716.74 564.7a389.12 389.12 0 0 1 604.83-452.78L211.66 760.41a387 387 0 0 1-57.24-94.8z" p-id="10600" fill="#333333"></path></svg>