<?xml version="1.0" standalone="no"?><!DOCTYPE svg PUBLIC "-//W3C//DTD SVG 1.1//EN" "http://www.w3.org/Graphics/SVG/1.1/DTD/svg11.dtd"><svg t="1604559176847" class="icon" viewBox="0 0 1024 1024" version="1.1" xmlns="http://www.w3.org/2000/svg" p-id="10796" xmlns:xlink="http://www.w3.org/1999/xlink" width="64" height="64"><defs><style type="text/css"></style></defs><path d="M692 242H332C183.5 242 62 363.5 62 512s121.5 270 270 270h360c148.5 0 270-121.5 270-270S840.5 242 692 242z m0 450H332c-99 0-180-81-180-180s81-180 180-180h360c99 0 180 81 180 180s-81 180-180 180z" fill="#333333" p-id="10797"></path><path d="M332 512m-120 0a120 120 0 1 0 240 0 120 120 0 1 0-240 0Z" fill="#333333" p-id="10798"></path></svg>