<?xml version="1.0" standalone="no"?><!DOCTYPE svg PUBLIC "-//W3C//DTD SVG 1.1//EN" "http://www.w3.org/Graphics/SVG/1.1/DTD/svg11.dtd"><svg t="1604631449523" class="icon" viewBox="0 0 1027 1024" version="1.1" xmlns="http://www.w3.org/2000/svg" p-id="4155" data-spm-anchor-id="a313x.7781069.0.i19" xmlns:xlink="http://www.w3.org/1999/xlink" width="64.1875" height="64"><defs><style type="text/css"></style></defs><path d="M513.807059 707.764706a195.764706 195.764706 0 1 1 195.764706-195.764706 196.065882 196.065882 0 0 1-195.764706 195.764706z m0-301.176471a105.411765 105.411765 0 1 0 105.411765 105.411765 105.411765 105.411765 0 0 0-105.411765-105.411765z" fill="#bfcbd9" p-id="4156"></path><path d="M647.228235 1024h-266.842353v-140.047059A398.456471 398.456471 0 0 1 255.698824 813.176471l-120.470589 69.872941L0 652.950588l122.277647-69.872941a379.783529 379.783529 0 0 1 0-142.155294L0 371.049412l133.722353-229.797647L255.698824 210.823529a398.155294 398.155294 0 0 1 124.687058-71.077647V0h266.842353v140.047059A398.155294 398.155294 0 0 1 771.614118 210.823529l120.470588-69.872941 133.722353 229.797647L903.529412 440.621176a379.783529 379.783529 0 0 1 0 142.155295l122.277647 69.872941-133.722353 229.797647-120.470588-69.872941a398.456471 398.456471 0 0 1-124.687059 71.077647z m-176.489411-90.352941h86.13647v-118.061177l34.032941-8.734117a308.103529 308.103529 0 0 0 142.757647-81.317647l24.395294-24.696471 103.002353 60.235294L903.529412 686.08l-103.002353-60.235294 9.637647-34.032941a294.249412 294.249412 0 0 0 0-162.635294l-9.637647-34.032942 103.002353-60.235294-42.767059-70.77647-103.002353 60.235294-24.395294-24.696471a308.103529 308.103529 0 0 0-142.757647-81.317647l-34.032941-8.734117V90.352941h-85.835294v118.061177l-34.032942 8.734117a308.103529 308.103529 0 0 0-142.757647 81.317647l-22.889411 24.696471-103.002353-60.235294-44.272942 74.992941 103.002353 60.235294-9.33647 32.527059a294.249412 294.249412 0 0 0 0 162.635294l9.637647 34.032941-103.002353 60.235294 42.767059 73.487059 103.002353-60.235294 24.395294 24.696471a308.103529 308.103529 0 0 0 142.757647 81.317647l34.032941 8.734117z" p-id="4157"></path></svg>