<?xml version="1.0" standalone="no"?><!DOCTYPE svg PUBLIC "-//W3C//DTD SVG 1.1//EN" "http://www.w3.org/Graphics/SVG/1.1/DTD/svg11.dtd"><svg t="1604631136748" class="icon" viewBox="0 0 1024 1024" version="1.1" xmlns="http://www.w3.org/2000/svg" p-id="41079" xmlns:xlink="http://www.w3.org/1999/xlink" width="64" height="64"><defs><style type="text/css"></style></defs><path d="M735.48864 738.56H625.53664a20.992 20.992 0 0 0-21.632 21.12v9.728c0 11.072 9.664 21.12 21.632 21.12h109.952v109.888c0 12.544 9.472 21.632 21.12 21.632h9.664a21.76 21.76 0 0 0 21.12-21.632v-109.952h109.952a20.992 20.992 0 0 0 21.632-21.12v-9.6a21.76 21.76 0 0 0-21.632-21.12h-109.952V628.672a20.992 20.992 0 0 0-21.12-21.696h-9.664a21.76 21.76 0 0 0-21.12 21.696v109.952z m-262.656-94.272c-45.44 2.304-104.512-1.216-131.264-9.472-119.168 35.456-184 145.408-184 275.712l0.192 4.48h325.952C505.92064 957.952 537.60064 995.2 576.00064 1024H50.56064a50.816 50.816 0 0 1-50.56-51.008V218.752c0-28.16 22.976-50.944 50.56-50.944h791.616c27.904 0 50.56 22.848 50.56 50.944v254.464A318.976 318.976 0 0 0 768.00064 448c-52.992 0-102.912 12.864-146.944 35.648 5.888-17.728 9.088-36.672 9.088-56.384 0-100.352-82.304-181.632-183.744-181.632-101.568 0-183.808 81.28-183.808 181.632 0 65.344 35.072 122.496 87.616 154.56a184.576 184.576 0 0 0 143.808 20.8 318.912 318.912 0 0 0-21.184 41.6zM78.72064 89.92c0-14.272 11.52-25.92 26.176-25.92h682.88c14.4 0 26.112 12.032 26.112 25.92 0 14.336-11.52 25.984-26.176 25.984H104.96064a26.304 26.304 0 0 1-26.112-25.984zM768.00064 1024a256 256 0 1 1 0-512 256 256 0 0 1 0 512z" p-id="41080"></path></svg>