<?xml version="1.0" standalone="no"?><!DOCTYPE svg PUBLIC "-//W3C//DTD SVG 1.1//EN" "http://www.w3.org/Graphics/SVG/1.1/DTD/svg11.dtd"><svg t="1604631004049" class="icon" viewBox="0 0 1024 1024" version="1.1" xmlns="http://www.w3.org/2000/svg" p-id="39870" xmlns:xlink="http://www.w3.org/1999/xlink" width="64" height="64"><defs><style type="text/css"></style></defs><path d="M884.294 566.353c28.9-205.627-114.355-395.745-319.968-424.642-205.612-28.897-395.722 114.37-424.62 319.997-28.891 205.567 114.273 395.636 319.79 424.617l0.181 0.025c19.687 2.767 33.403 20.97 30.636 40.658-2.767 19.687-20.968 33.404-40.655 30.637C204.668 923.215 33.982 696.69 68.415 451.69 102.848 206.687 329.361 35.985 574.346 70.415c244.915 34.421 415.574 260.826 381.268 505.747l-0.03 0.214c-2.766 19.688-20.968 33.405-40.654 30.638-19.686-2.767-33.402-20.97-30.636-40.658v-0.003zM733 548.75v0.25H356.3c16.696 70.526 80.07 123 155.7 123 49.701 0 94.628-22.83 124.134-59h75.858C675.066 685.973 599.375 736 512 736c-123.712 0-224-100.288-224-224s100.288-224 224-224 224 100.288 224 224c0 12.516-1.027 24.793-3 36.75zM669.731 485C656.9 409.492 591.163 352 512 352s-144.899 57.492-157.731 133H669.73zM648 784h256a8 8 0 0 1 8 8v48a8 8 0 0 1-8 8H648a8 8 0 0 1-8-8v-48a8 8 0 0 1 8-8z m80-112h176a8 8 0 0 1 8 8v48a8 8 0 0 1-8 8H728a8 8 0 0 1-8-8v-48a8 8 0 0 1 8-8zM568 896h336a8 8 0 0 1 8 8v48a8 8 0 0 1-8 8H568a8 8 0 0 1-8-8v-48a8 8 0 0 1 8-8z" p-id="39871"></path></svg>