<?xml version="1.0" standalone="no"?><!DOCTYPE svg PUBLIC "-//W3C//DTD SVG 1.1//EN" "http://www.w3.org/Graphics/SVG/1.1/DTD/svg11.dtd"><svg t="1604629639483" class="icon" viewBox="0 0 1024 1024" version="1.1" xmlns="http://www.w3.org/2000/svg" p-id="25373" xmlns:xlink="http://www.w3.org/1999/xlink" width="64" height="64"><defs><style type="text/css"></style></defs><path d="M770.06 923.34H253.94c-84.31 0-152.91-68.59-152.91-152.91V254.31c0-84.31 68.59-152.91 152.91-152.91h516.12c84.31 0 152.91 68.59 152.91 152.91v516.12c0 84.32-68.6 152.91-152.91 152.91zM253.94 159.41c-52.33 0-94.91 42.58-94.91 94.91v516.12c0 52.33 42.58 94.91 94.91 94.91h516.12c52.33 0 94.91-42.58 94.91-94.91V254.31c0-52.33-42.58-94.91-94.91-94.91H253.94z" p-id="25374"></path><path d="M585.28 780.45c-16.02 0-29-12.98-29-29V311.77c0-16.02 12.98-29 29-29s29 12.98 29 29v439.67c0 16.02-12.98 29.01-29 29.01zM438.72 780.45c-16.02 0-29-12.98-29-29v-296.3c0-16.02 12.98-29 29-29s29 12.98 29 29v296.3c0 16.01-12.98 29-29 29zM292.16 780.45c-16.02 0-29-12.98-29-29V598.52c0-16.02 12.98-29 29-29s29 12.98 29 29v152.93c0 16.01-12.98 29-29 29zM731.84 780.45c-16.02 0-29-12.98-29-29V598.52c0-16.02 12.98-29 29-29s29 12.98 29 29v152.93c0 16.01-12.99 29-29 29z" p-id="25375"></path></svg>