<?xml version="1.0" standalone="no"?><!DOCTYPE svg PUBLIC "-//W3C//DTD SVG 1.1//EN" "http://www.w3.org/Graphics/SVG/1.1/DTD/svg11.dtd"><svg t="1604628160773" class="icon" viewBox="0 0 1024 1024" version="1.1" xmlns="http://www.w3.org/2000/svg" p-id="16264" xmlns:xlink="http://www.w3.org/1999/xlink" width="64" height="64"><defs><style type="text/css"></style></defs><path d="M921.25 0h-818.5a40 40 0 0 0-40 40v944a40 40 0 0 0 40 40h818.5a40 40 0 0 0 40-40V40a40 40 0 0 0-40-40z m0 984h-818.5V40h818.5z" p-id="16265"></path><path d="M202.31 445.88h616.11a20 20 0 0 0 0-40H202.31a20 20 0 0 0 0 40zM202.31 651.25h308.06a20 20 0 0 0 0-40H202.31a20 20 0 1 0 0 40zM202.31 863h231a20 20 0 0 0 0-40h-231a20 20 0 1 0 0 40zM766.18 517.71a75.49 75.49 0 0 0-75.29 81.14l-35.16-35.17a20 20 0 0 0-28.28 0l-42.91 42.91a20 20 0 0 0 0 28.29l37.63 37.63-95.84 95.84a45.76 45.76 0 1 0 64.72 64.72l95.84-95.84 37.64 37.64a20 20 0 0 0 28.28 0L795.72 732a20 20 0 0 0 0-28.29l-35.16-35.16c1.87 0.14 3.74 0.23 5.62 0.23a75.52 75.52 0 0 0 0-151zM562.77 804.79a5.77 5.77 0 0 1-8.15-8.16L649.26 702l8.15 8.15z m175.9-72.35L627 620.73l14.63-14.62L753.3 717.82z m52.62-114.1a35.52 35.52 0 1 1 0-50.23 35.32 35.32 0 0 1 0 50.23zM245.48 201.09l47.1 110.94 26.3 0.14 35.15-150.36-25.01-0.14-26.03 111.38-47.46-111.77-25.74-0.14-35.38 150.36 25.02 0.14 26.05-110.55zM465.48 289.2l-80.14-0.42 9.68-40.66 76.57 0.41 5.63-23.72-76.53-0.4 9.21-38.55 80.14 0.42 5.42-23.71-105.45-0.57-35.73 150.36 105.77 0.57 5.43-23.73zM547.15 313.39l60.94-114.16 0.83 0.19 6.8 114.34 27.34 0.14 82.45-150.11-29.47-0.16-58.9 113.99h-0.42l-6.59-114.34-28.01-0.14-60.37 113.99-0.44-0.02-4.92-114.33-27.58-0.14 11.5 150.61 26.84 0.14zM748.39 238.06c4.88 2.23 10.06 4.61 15.53 7.08s10.5 4.8 15.07 6.87a36.75 36.75 0 0 1 11.61 8.15 16.46 16.46 0 0 1 4.73 12c0 7.49-3.22 13.07-9.53 16.79s-14.6 5.52-24.93 5.47q-14.64-0.08-21.81-6.06t-7.12-16.78a27.23 27.23 0 0 1 0.23-4.24l-25.17-0.17-0.48 7.64c-0.05 12.59 4.39 22.8 13.41 30.7s21.92 11.88 38.74 12q27.15 0.16 45.65-12.36t18.63-35a40.79 40.79 0 0 0-3.43-17.46 33.62 33.62 0 0 0-9.05-12.25 56.45 56.45 0 0 0-12.72-7.87L784 226.25l-12.42-5.67a29.52 29.52 0 0 1-9.6-6.78 13.55 13.55 0 0 1-3.77-9.51A17.35 17.35 0 0 1 766 189.4q7.78-5.42 20.08-5.35 13.16 0.07 20.53 6.16a19.6 19.6 0 0 1 7.33 16 39 39 0 0 1-0.23 4.65l25 0.15 0.46-7.85q0.1-18.16-13.84-30.16t-36.82-12q-24.59-0.14-40.67 12.4t-16.19 34.58c0 7.35 1.49 13.65 4.66 18.89a27.2 27.2 0 0 0 12.08 11.19z" p-id="16266"></path></svg>