<?xml version="1.0" standalone="no"?><!DOCTYPE svg PUBLIC "-//W3C//DTD SVG 1.1//EN" "http://www.w3.org/Graphics/SVG/1.1/DTD/svg11.dtd"><svg t="1604630377420" class="icon" viewBox="0 0 1024 1024" version="1.1" xmlns="http://www.w3.org/2000/svg" p-id="34626" xmlns:xlink="http://www.w3.org/1999/xlink" width="64" height="64"><defs><style type="text/css"></style></defs><path d="M504.58717 1006.708172c-98.014314 0-193.719027-29.257348-276.528034-85.600587C119.078049 846.967004 45.484937 734.838228 20.847817 605.344968c-24.63712-129.479957 2.614547-260.814144 76.754105-369.795231C250.652713 10.580986 558.202275-47.971571 783.171026 105.092523c133.782959 91.007737 214.497259 242.066151 215.931934 404.065755 0.190335 21.527292-17.10968 39.144532-38.650275 39.334867-0.11461 0-0.228197 0-0.355087 0-21.37482 0-38.789445-17.23657-38.97978-38.650275-1.205455-136.436392-69.163219-263.644609-181.812859-340.271824C549.863353 40.700981 290.927999 90.000803 162.081469 279.416827c-62.423725 91.756797-85.37239 202.337311-64.61974 311.357284 20.74037 109.018949 82.706677 203.429179 174.464497 265.852904 91.744517 62.423725 202.287169 85.423555 311.357284 64.632019 109.018949-20.74037 203.441459-82.706677 265.865183-174.464497 12.108782-17.795295 36.365232-22.415522 54.17383-10.30674 17.808598 12.108782 22.415522 36.365232 10.30674 54.17383C839.489706 899.642714 727.347626 973.236849 597.85539 997.873969 566.770418 1003.788679 535.558555 1006.708172 504.58717 1006.708172zM513.74576 554.750663 339.332429 316.910767c-12.743232-17.36346-8.986675-41.772382 8.377808-54.503335 17.376763-12.718673 41.772382-8.974395 54.503335 8.377808l111.532189 152.086837 111.532189-152.086837c12.743232-17.35118 37.152155-21.095457 54.503335-8.377808 17.36346 12.730952 21.12104 37.139875 8.377808 54.503335L513.74576 554.750663zM662.139485 562.468438 365.353059 562.468438c-21.539572 0-38.993083-17.452487-38.993083-38.993083s17.452487-38.993083 38.993083-38.993083l296.785403 0c21.539572 0 38.993083 17.452487 38.993083 38.993083S683.679058 562.468438 662.139485 562.468438zM662.139485 683.774225 365.353059 683.774225c-21.539572 0-38.993083-17.452487-38.993083-38.993083s17.452487-38.993083 38.993083-38.993083l296.785403 0c21.539572 0 38.993083 17.452487 38.993083 38.993083S683.679058 683.774225 662.139485 683.774225zM513.74576 798.580994c-21.539572 0-38.993083-17.452487-38.993083-38.992059L474.752678 488.810858c0-21.539572 17.452487-38.993083 38.993083-38.993083 21.539572 0 38.993083 17.452487 38.993083 38.993083l0 270.778076C552.738843 781.128507 535.286356 798.580994 513.74576 798.580994z" p-id="34627"></path></svg>